<svg
    width="32"
    height="32"
    viewBox="0 0 32 32"
    fill="none"
    xmlns="http://www.w3.org/2000/svg"
>
    <path
        d="M10.7521 23.3996C10.366 25.0809 8.41456 26.782 6.31738 25.3972C6.31738 25.3972 7.67526 26.604 10.4333 26.604H22.4646C23.9666 26.604 25.2654 25.5567 25.5843 24.0884L27.0886 16.6898C27.5357 14.3721 26.0064 13.2725 23.9703 13.2725H15.5231C14.0248 13.2725 12.7272 14.3148 12.4059 15.7781L10.7521 23.3996Z"
        stroke="#4433FF"
        stroke-width="1.44"
        stroke-linecap="round"
        stroke-linejoin="round"
    />
    <path
        d="M10.4339 26.6046C6.46498 26.6046 4.12744 24.2721 4.12744 20.313V11.684C4.12744 7.73001 5.58202 5.39746 9.54101 5.39746H11.754C12.5485 5.39746 13.2958 5.77231 13.7715 6.40744L14.7815 7.75118C15.2597 8.38507 16.0081 8.75868 16.8026 8.76116H18.6707C22.0917 8.76116 23.6522 10.2618 24.017 13.2631"
        stroke="#4433FF"
        stroke-width="1.44"
        stroke-linecap="round"
        stroke-linejoin="round"
    />
</svg>