<svg width="32" height="32" viewBox="0 0 32 32" fill="none" xmlns="http://www.w3.org/2000/svg">
    <path
        d="M20.8545 27.9832C25.3289 27.9832 27.9651 25.3458 27.9651 20.8728L28 14.6652C28 10.1014 26.3445 7.81891 21.8597 7.81891H18.322C17.4243 7.81632 16.5797 7.39402 16.0395 6.67765L14.8983 5.15944C14.3593 4.44179 13.5148 4.01819 12.617 4.01819H10.1169C5.64257 4.01819 4 6.65435 4 11.1222V20.8728C4 25.3458 6.64133 27.9832 11.126 27.9832H20.8545Z"
        stroke="#4433FF" stroke-width="1.5" stroke-linecap="round" stroke-linejoin="round" />
    <path
        d="M13.0676 18.8861L15.9991 21.8305M15.9991 21.8305L18.9319 18.8861M15.9991 21.8305L15.9999 13.6121"
        stroke="#4433FF" stroke-width="1.5" stroke-linecap="round" stroke-linejoin="round" />
</svg>
    